<?xml version="1.0" encoding="UTF-8"?>
<svg width="18px" height="16px" viewBox="0 0 18 16" version="1.1" xmlns="http://www.w3.org/2000/svg" xmlns:xlink="http://www.w3.org/1999/xlink">
    <!-- Generator: Sketch 52.6 (67491) - http://www.bohemiancoding.com/sketch -->
    <title>icon_maps</title>
    <desc>Created with Sketch.</desc>
    <g id="Page-1" stroke="none" stroke-width="1" fill="none" fill-rule="evenodd" stroke-linecap="round" stroke-linejoin="round">
        <g id="DDB" transform="translate(-755.000000, -735.000000)" stroke="#345678" stroke-width="1.5">
            <g id="Location" transform="translate(756.000000, 639.000000)">
                <g id="Google-Maps" transform="translate(0.000000, 95.000000)">
                    <g id="icon_maps" transform="translate(0.000000, 2.000000)">
                        <path d="M10.8713333,0.558666667 C10.6329561,0.463332835 10.3670439,0.463332835 10.1286667,0.558666667 L5.87133333,2.262 C5.63295606,2.35733383 5.36704394,2.35733383 5.12866667,2.262 L1.186,0.684666667 C1.03152144,0.62275508 0.856363867,0.641762467 0.718761553,0.735369483 C0.58115924,0.8289765 0.499150272,0.984912337 0.5,1.15133333 L0.5,10.7333333 C0.499931685,11.1423214 0.748921428,11.5101291 1.12866667,11.662 L5.12866667,13.262 C5.36704394,13.3573338 5.63295606,13.3573338 5.87133333,13.262 L10.1286667,11.5586667 C10.3670439,11.4633328 10.6329561,11.4633328 10.8713333,11.5586667 L14.814,13.1333333 C14.9684786,13.1952449 15.1436361,13.1762375 15.2812384,13.0826305 C15.4188408,12.9890235 15.5008497,12.8330877 15.5,12.6666667 L15.5,3.08733333 C15.5000683,2.67834531 15.2510786,2.31053755 14.8713333,2.15866667 L10.8713333,0.558666667 Z" id="Path"></path>
                        <path d="M5.5,2.33333333 L5.5,13.3333333" id="Path"></path>
                        <path d="M10.5,0.487333333 L10.5,11.4873333" id="Path"></path>
                    </g>
                </g>
            </g>
        </g>
    </g>
</svg>